<?xml version="1.0" encoding="UTF-8" standalone="no"?>
<svg
   xmlns:dc="http://purl.org/dc/elements/1.1/"
   xmlns:cc="http://creativecommons.org/ns#"
   xmlns:rdf="http://www.w3.org/1999/02/22-rdf-syntax-ns#"
   xmlns:svg="http://www.w3.org/2000/svg"
   xmlns="http://www.w3.org/2000/svg"
   version="1.1"
   id="svg2"
   viewBox="0 0 210 297"
   style="shape-rendering:geometricPrecision; text-rendering:geometricPrecision; image-rendering:optimizeQuality; fill-rule:evenodd; clip-rule:evenodd"
   height="297mm"
   width="210mm"
   xml:space="preserve"><metadata
   id="metadata18"><rdf:RDF><cc:Work
       rdf:about=""><dc:format>image/svg+xml</dc:format><dc:type
         rdf:resource="http://purl.org/dc/dcmitype/StillImage" /><dc:title></dc:title></cc:Work></rdf:RDF></metadata>
 <defs
   id="defs4">
  <style
   id="style6"
   type="text/css">
   <![CDATA[
    .fil0 {fill:#4D4D4D}
    .fil1 {fill:#CCCCCC}
   ]]>
  </style>
 </defs>
 <g
   id="Layer_x0020_1">
  <metadata
   id="CorelCorpID_0Corel-Layer" />
  <g
   id="_289027936">
   <g
   id="g11">
    <path
   d="M146.877 260.776c-0.047,-0.233 -1.4596,-8.8928 -1.7549,-10.384 -2.0023,-0.8644 -11.6076,-1.6218 -13.2339,-1.815 -2.0386,-9.6422 -6.9193,-33.9133 -7.9336,-39.8725 -0.2904,-0.1415 -1.468,-0.5323 -1.602,-0.5741 -0.0132,-1.6922 -0.3206,-3.3425 -0.4537,-4.2107 1.2962,0.5623 3.1427,1.4839 4.378,2.7046l0.165 1.7799 0.5991 0.2576 -0.0485 -2.5215c-1.4456,-1.9851 -5.5523,-3.3757 -8.0847,-4.3444 -0.0142,-0.2827 0.0506,-0.7693 0.0268,-1.2872 -0.4463,-15.2557 -0.0365,-31.7362 -1.0262,-46.8721 -0.66,-10.0952 -1.2445,-17.2297 -2.7224,-26.6833 -0.2093,-1.3367 -0.9946,-2.3986 0.4432,-3.2509 1.063,-0.0939 2.0946,0.9074 2.1592,2.0499 0.0381,0.6741 -0.1401,1.0899 0.0576,2.1029 0.9495,4.8602 0.7006,10.1219 0.9997,15.0584 0.8877,-0.192 0.8033,0.9714 1.289,2.1281 0.3602,2.6727 0.7961,4.6731 1.0414,7.3939 1.9021,-0.6125 2.5538,-1.8839 4.8088,-1.8792 0,-3.0851 -0.2645,-6.5673 -0.2645,-9.6525 0.2512,-0.935 1.6015,0.1243 2.0659,-0.5971 -0.1045,-0.7259 -0.2999,-0.6649 -0.4045,-1.3908 -0.0276,-2.7768 -0.0056,-5.4552 -0.2316,-8.1467 -0.0554,-0.6589 -0.0919,-1.1259 -0.1237,-1.813 -0.1372,-2.953 -0.1371,-6.0197 -0.2645,-8.8335 -0.1225,-2.6994 -0.95,-5.8576 -0.4386,-7.7401 1.0877,-0.722 2.1707,0.7453 2.4795,1.2663 0.3479,-1.0111 0.4456,-1.4128 0.8013,-1.887 0.8841,0.0549 1.3647,-0.0962 2.0413,-0.2489 -0.6491,-1.2484 -2.3027,-1.49 -2.8426,-2.8479 0.1254,-2.6798 -0.169,-5.1961 0,-7.4757 0.0524,-0.7042 0.3463,-0.9676 0.3554,-1.4239 0.0122,-0.6096 -0.2839,-0.787 -0.3554,-1.424 -0.0653,-0.582 0.3972,-0.6154 0.3554,-1.0678 0.0019,0.0205 -0.3428,-0.1163 -0.3554,-0.356 -0.027,-0.5168 0.3469,-1.2792 0.3554,-2.136 -1.3111,-0.574 -0.6143,1.0539 -1.0659,1.424 -0.1478,0.1211 -0.5938,0.211 -0.7106,0.3559 -0.0997,0.1237 0.1192,0.6143 0,0.7121 -0.3969,0.3252 -1.1732,0.5354 -1.7766,1.0678 -1.6399,0.1004 -1.9146,-1.1668 -2.4872,-2.1358 0.0524,-0.7943 0.8952,0.462 1.7766,0 0.3489,-0.4811 0.9479,-0.7114 1.4211,-1.068 -0.4921,-1.2867 -0.7689,-2.7893 -1.4211,-3.9158 0.0975,-0.8396 1.3237,0.0327 1.4211,0.356 0.8236,-0.6699 1.5133,-1.4719 2.8426,-0.7119 -0.2322,-1.166 -1.377,-1.8373 -2.1318,-2.8479 -0.2209,-0.2958 -0.5056,-0.4573 -0.7108,-0.7119 -0.0995,-0.1237 0.1192,-0.6143 0,-0.7121 -0.7655,-0.6274 -1.8546,-1.5048 -2.487,-2.8479 0.1328,-0.6456 0.873,0.1884 1.0659,0.356 0.8357,0.727 1.7374,2.8217 3.5531,2.8479 1.2778,-0.9748 1.0609,-1.6534 0.592,-2.7449 0.3134,-1.1667 0.1582,-2.2232 0.8291,-3.3067 0.2279,-0.3678 0.458,-0.4228 0.7108,-0.7121 0.1135,-0.1299 0.085,-0.4056 0.206,-0.5267 0.1043,-0.1045 0.4213,-0.0679 0.5045,-0.1853 0.3917,-0.5524 0.2164,-1.3032 0.7107,-1.7799 -0.3116,-1.2304 -0.7469,-2.3368 -1.7766,-2.8479 0.8909,-0.8025 -0.4803,-3.0719 1.4213,-3.2037 0.1274,-0.5535 -0.1685,-1.2394 0,-1.7799 0.0354,-0.1139 0.7071,-0.6715 0.7105,-0.7119 0.0525,-0.6236 -0.7479,-1.0648 -0.3552,-2.136 -1.1854,-0.0011 -1.3851,0.0391 -2.6592,-0.0508 0.0144,-0.1241 6.9941,-6.4171 7.2031,-13.1207 0.7129,-2.3614 0.0553,-14.5488 -0.3552,-17.7247 -5.1533,0.0844 -14.1132,0.4646 -17.6686,10.1279 -0.5401,1.4691 0.1526,14.7511 0.4304,16.7547 0.5425,3.9098 1.8703,6.7351 6.3846,6.6033 0.0093,3.2348 -0.6981,5.4585 -2.5733,7.0218 -0.268,0.2235 -0.7873,0.1826 -1.0659,0.356 -0.2423,0.1509 -0.4921,0.5693 -0.7105,0.7119 -0.3619,0.2364 -0.7481,0.1125 -1.066,0.3561 -0.2562,0.1964 -0.4149,0.4901 -0.7107,0.7119 -1.0673,0.801 -2.0165,1.6605 -2.8424,2.4919 -1.2324,-0.2855 -1.3657,0.5302 -2.4871,0.356 -0.6667,1.2308 -1.8805,1.9129 -3.1978,2.4918 -0.3436,0.815 -0.8409,1.5185 -1.4212,2.136 -0.1068,0.1135 -0.6131,-0.1196 -0.7106,0 -0.0584,0.0713 0.0574,0.2837 0,0.3559 -0.2663,0.3355 -0.3564,0.8106 -1.0661,1.0679 -0.3243,0.9803 -0.6511,1.9582 -1.7764,2.136 -1.3426,0.2648 -1.083,-1.7268 -1.4213,-2.8479 -0.1204,-0.3989 -0.837,-1.907 0,-2.8479 0.1884,-0.8399 -0.7142,-1.0343 -1.0659,-1.4238 -0.3867,-0.4283 -0.7876,-0.8742 -1.066,-1.424 -0.2589,-0.9712 0.7061,-0.7166 0.7106,-1.4239 0.139,-1.0854 -0.9341,-1.8125 0.3554,-2.136 1.147,-0.2217 0.8347,1.2372 1.0659,1.7799 0.1266,0.2972 1.2232,0.7492 0.7107,2.136 1.0048,0.1953 0.7305,-0.8997 1.0659,-1.068 0.1652,-0.083 0.751,0.6615 0.7106,0 0.6373,-0.0453 0.7495,0.4358 1.4212,0.3561 1.3335,-0.2681 0.7747,1.3598 1.7765,1.4238 1.2473,0.3122 0.3695,-0.9231 0,-1.0679 -0.1454,-0.8577 0.6491,-0.7738 0.3554,-1.78 -1.1471,-0.3185 -0.4992,1.1612 -1.0659,1.4241 -0.9786,-0.681 -1.864,-1.4552 -2.8426,-2.136 0.1101,-0.4831 0.8897,-0.2952 1.4213,-0.356 -0.3585,-0.7087 -0.6143,-1.5205 -1.4213,-1.7799 -0.4391,-1.1519 1.1498,-0.272 0.7107,-1.4239 -1.0233,-0.0427 -0.6166,-1.5181 -1.7766,-1.4241 -0.3157,-0.7515 -1.0816,-1.0521 -1.0659,-2.1357 -0.5922,0 -1.1844,0 -1.7765,0 -0.8194,0.1088 -0.3948,-1.0286 -1.0659,-1.068 -1.6319,0.0338 -3.8704,-0.0067 -4.6192,0.7119 -0.1953,0.1876 0.0567,0.3344 -0.3552,0.3561 -0.6462,0.0341 -0.5958,1.7328 -1.4212,2.1357 0.0706,0.2416 -0.3484,0.6636 -0.1977,0.8366 0.6249,0.7177 0.6291,2.2401 -0.3043,3.1488 -0.4835,1.0156 0.4712,0.9395 0.6759,1.6838 -0.2322,0.3102 0.1101,0.7496 -0.1417,0.9382 -0.4655,0.3485 -0.5143,1.0156 -0.0579,1.8802 0.4161,0.7883 0.1358,1.545 0.2344,1.7664 0.2491,0.7157 0.4616,0.9925 0.8572,1.1376 0.4263,0.1563 0.5601,-0.0167 1.0312,0.3375 0.2219,1.3381 0.0669,7.1704 -1.3866,8.9181 -1.1746,0.411 -1.9983,-0.5006 -2.8424,-0.7119 -0.6902,-0.173 -1.6727,-0.2312 -2.4872,-0.7121 -0.4283,-0.2529 -0.3314,-1.0292 -1.0659,-1.0678 -0.3865,-0.0205 -0.7524,-0.8296 -1.4212,-1.068 0,-0.8306 0,-1.6614 0,-2.492 -1.2508,-0.9588 -1.5443,-2.5053 -2.4872,-3.9157 -0.2364,-0.3537 -0.8131,-0.6799 -1.066,-1.068 -0.0843,-0.1295 0.1145,-0.6182 0,-0.7119 -0.0416,-0.0341 -0.3343,0.0443 -0.3553,0 -0.0611,-0.1294 0.1037,-0.627 0,-0.7121 -0.293,-0.2401 -1.0315,-0.4138 -1.0659,-1.0678 -0.0131,-0.2496 -0.6988,-0.9853 -1.0659,-1.4241 -0.3264,-0.3901 -0.5218,-1.0219 -1.0659,-1.0679 0.1209,-1.7823 -1.3538,-1.9661 -1.0659,-3.9157 0.1679,-1.1178 -0.9564,-0.9405 -1.066,-1.7799 0.301,-1.0436 1.144,0.2127 1.7765,0 0.6713,-0.0397 0.6965,-0.7007 1.0659,-1.068 0.0512,-1.1192 -0.9112,-1.223 -1.7764,-1.4241 0.464,-1.5327 -0.7614,-1.373 -1.4478,-1.7534l0.3818 -31.3529 -1.0676 -0.8822 -1.5828 1.5031 -0.7107 30.8579c-1.007,0.9999 -1.7457,2.0594 -2.129,3.9252 -0.2129,1.0363 -0.3912,3.0861 -0.25,4.3661 0.0624,0.5647 0.3448,0.4979 0.4256,0.9563 0.0739,0.4201 0.0731,0.8924 0.2298,1.2853 0.06,0.1508 0.5858,0.5333 0.6053,0.9064 0.0158,0.3023 1.4846,1.8575 1.9371,2.1976 0.5712,0.4289 1.201,0.7093 1.7265,0.762 0.9354,1.7963 0.362,4.5485 0.8158,6.4517 0.0183,0.0767 0.3388,0.0414 0.3554,0.3561 0.0293,0.5581 0.2165,0.632 0.3552,1.068 0.2114,0.664 0.179,1.4447 0.3554,1.7799 0.1634,0.3106 0.8692,0.4299 1.0659,0.7119 0.2398,0.3438 0.0954,0.7724 0.3553,1.068 0.4902,0.5574 1.2718,0.997 1.7765,1.4239 0.6399,1.4777 0.2136,3.7663 -0.3554,5.6957 -0.1321,0.4482 -0.3176,0.6939 -0.3552,1.068 -0.0747,0.7441 0.4097,0.9693 0.3552,1.4239 -0.1342,1.1253 -0.5698,1.8148 -0.7105,2.8479 -0.1349,1.2032 0.6159,1.5189 1.0659,2.1359 -0.4284,1.232 -0.7741,2.5468 -0.7106,4.2718 0.1366,1.1684 1.0391,1.5695 1.4213,2.4918 -0.8485,2.3539 -1.1532,5.2524 -1.0661,8.5437 2.4197,0.7513 4.4499,1.4815 4.9744,3.5598 0.2203,0.873 -0.2829,1.4792 -0.3552,2.136 -0.0815,0.7376 0.1085,1.6732 0,2.4918 -0.083,0.6244 -0.3137,0.7631 -0.3554,1.4239 -0.1484,2.3514 0.1463,4.6675 0,6.4077 -0.52,6.1885 -0.7443,16.6953 -0.3553,25.2746 0.0269,0.5915 0.2952,1.1807 0.3553,1.7801 0.2831,2.8264 -0.2016,5.7864 0,8.1876 0.4834,5.7547 0.8712,13.48 1.4213,19.5792 0.1704,1.8894 0.0764,5.7889 0.3864,7.3451 -2.5381,0.6872 -5.2404,2.0868 -7.2455,4.2748 0.0569,0.3137 0.509,2.552 0.6484,3.3758 -1.7073,0.2407 -6.6745,1.7233 -9.1529,4.7646l-12.1426 37.9597c-1.6804,0.3112 -6.9635,1.1584 -10.4298,2.3874 -1.2418,0.4402 -2.1351,1.5645 -2.1911,1.6365 -0.2212,0.2846 -0.7832,2.8844 -1.0888,3.757l99.7952 0.1059zm-39.9479 -175.45c0.6451,0.0499 1.6669,-0.2796 2.1319,-0.7121 0.5918,-0.5507 1.0998,-0.8636 0.3553,-1.7799 -0.7879,-0.1959 -0.5059,0.6798 -1.0659,0.7119 -0.5111,-0.2718 -0.4315,-0.9254 -0.7107,-1.4239 -0.1056,-0.1884 -0.334,0.0478 -0.3554,-0.356 -0.0151,-0.291 -0.3982,-0.3526 -0.3552,-0.7119 -0.4549,0.1553 -0.7062,0.4557 -0.7107,1.0679 -0.006,0.8534 0.6485,1.3553 0,2.4919 0.3164,0.1577 0.6356,0.3126 0.7107,0.7121z"
   class="fil0"
   id="_289025512" />
    <path
   d="M77.7283 77.1703l-0.0981 3.5444 1.0548 0.0491 -0.0614 -2.1464 -0.1327 -0.835 -0.7626 -0.6121zm49.8888 63.3057c1.2225,-0.2646 2.285,-0.6598 2.5332,-1.4043 0.2204,-0.6613 -1.028,-19.3619 -1.451,-25.5868 -0.4031,-0.6066 -1.3877,-1.7588 -2.3763,-1.1026 -0.5114,1.8825 0.3161,5.0407 0.4386,7.7401 0.1274,2.8138 0.1273,5.8805 0.2645,8.8335 0.0318,0.6871 0.0683,1.1541 0.1237,1.813 0.226,2.6915 0.204,5.3699 0.2316,8.1467 0.1046,0.7259 0.3,0.6649 0.4045,1.3908 -0.0476,0.074 -0.1047,0.129 -0.1688,0.1696zm1.3881 -53.8261c0,0.9468 0.2583,2.1517 0.6886,2.9263 0.4303,0.7746 1.0328,2.4959 1.291,5.8526 0.2582,3.3567 0.8607,15.4922 0.7746,16.0086 -0.0071,0.0426 -0.0477,0.0661 -0.115,0.074 -0.6495,-1.2473 -2.3022,-1.4892 -2.8419,-2.8466 0.1254,-2.6798 -0.169,-5.1961 0,-7.4757 0.0524,-0.7042 0.3463,-0.9676 0.3554,-1.4239 0.0122,-0.6096 -0.2839,-0.787 -0.3554,-1.424 -0.0653,-0.582 0.3972,-0.6154 0.3554,-1.0678 0.0019,0.0205 -0.3428,-0.1163 -0.3554,-0.356 -0.027,-0.5168 0.3469,-1.2792 0.3554,-2.136 -1.3111,-0.574 -0.6143,1.0539 -1.0659,1.424 -0.1478,0.1211 -0.5938,0.211 -0.7106,0.3559 -0.0997,0.1237 0.1192,0.6143 0,0.7121 -0.3969,0.3252 -1.1732,0.5354 -1.7766,1.0678 -1.6399,0.1004 -1.9146,-1.1668 -2.4872,-2.1358 0.0524,-0.7943 0.8952,0.462 1.7766,0 0.3489,-0.4811 0.9479,-0.7114 1.4211,-1.068 -0.4921,-1.2867 -0.7689,-2.7893 -1.4211,-3.9158 0.0975,-0.8396 1.3237,0.0327 1.4211,0.356 0.8236,-0.6699 1.5133,-1.4719 2.8426,-0.7119 -0.2322,-1.166 -1.377,-1.8373 -2.1318,-2.8479 -0.2209,-0.2958 -0.5056,-0.4573 -0.7108,-0.7119 -0.0995,-0.1237 0.1192,-0.6143 0,-0.7121 -0.7655,-0.6274 -1.8546,-1.5048 -2.487,-2.8479 0.1328,-0.6456 0.873,0.1884 1.0659,0.356 0.8357,0.727 1.7374,2.8217 3.5531,2.8479 0.1858,-0.1417 0.3197,-0.2794 0.4118,-0.4145l0.1461 0.1146zm-14.7962 15.2476l0.7276 0.1985c0,0 0.7276,6.8791 0.8599,7.5406 0.1323,0.6615 0.4631,0.6614 0.4631,1.4552 0,0.7938 0.8599,11.6418 0.8599,11.6418l-1.4553 -0.463 -1.4552 -20.3731zm-1.9844 -0.7937l0.8599 0.2645c0,0 1.786,17.9256 1.786,19.3147 0,1.3891 -0.8598,1.3891 -1.1906,1.3891 -0.3308,0 -1.1907,-0.5953 -1.1907,-0.9922 0,-0.3969 1.1906,-0.5953 1.3229,-1.3229 0.1323,-0.7276 0.1984,-1.6537 -0.5953,-2.1167 -0.7937,-0.463 -1.2567,-7.0776 -0.6614,-7.2099 0.5953,-0.1323 0.9921,-0.6616 0.6614,-1.0584 -0.3307,-0.3968 -0.9922,-8.2682 -0.9922,-8.2682zm-10.4963 40.055l1.7646 59.5238 1.7646 0.0001 -3.5292 -59.5239zm11.0854 -48.272l0 1.1827c-0.1577,0.6728 0.6222,2.1107 -0.8847,1.6756 -0.0521,-0.883 0.1078,-2.806 0.8847,-2.8583zm-11.2326 -22.2843c0.7384,-0.0118 2.4535,0.0826 3.3677,0.8445 1.0435,0.8696 3.2348,2.0522 4.5218,5.0783 1.287,3.0261 0.4523,2.9218 1.3218,3.5479 0.8695,0.6261 0.1391,1.426 0.1043,1.8782 -0.0348,0.4522 -0.5665,0.9107 -0.8695,1.6 -0.5495,1.2504 -1.3285,1.3878 -2.1218,1.7392 -0.5414,0.2399 -0.8696,0.2088 -1.0087,0.6957 -0.1094,0.3828 0.0178,1.6254 0.2461,2.5957 -0.2769,0.6071 -0.6727,1.0952 -1.4353,1.2157 -1.3426,0.2648 -1.083,-1.7268 -1.4213,-2.8479 -0.1204,-0.3989 -0.837,-1.907 0,-2.8479 0.1884,-0.8399 -0.7142,-1.0343 -1.0659,-1.4238 -0.3867,-0.4283 -0.7876,-0.8742 -1.066,-1.424 -0.2589,-0.9712 0.7061,-0.7166 0.7106,-1.4239 0.139,-1.0854 -0.9341,-1.8125 0.3554,-2.136 1.147,-0.2217 0.8347,1.2372 1.0659,1.7799 0.1266,0.2972 1.2232,0.7492 0.7107,2.136 1.0048,0.1953 0.7305,-0.8997 1.0659,-1.068 0.1652,-0.083 0.751,0.6615 0.7106,0 0.6373,-0.0453 0.7495,0.4358 1.4212,0.3561 1.3335,-0.2681 0.7747,1.3598 1.7765,1.4238 1.2473,0.3122 0.3695,-0.9231 0,-1.0679 -0.1454,-0.8577 0.6491,-0.7738 0.3554,-1.78 -1.1471,-0.3185 -0.4992,1.1612 -1.0659,1.4241 -0.9786,-0.681 -1.864,-1.4552 -2.8426,-2.136 0.1101,-0.4831 0.8897,-0.2952 1.4213,-0.356 -0.3585,-0.7087 -0.6143,-1.5205 -1.4213,-1.7799 -0.4391,-1.1519 1.1498,-0.272 0.7107,-1.4239 -1.0233,-0.0427 -0.6166,-1.5181 -1.7766,-1.4241 -0.3157,-0.7515 -1.0816,-1.0521 -1.0659,-2.1357 -0.5922,0 -1.1844,0 -1.7765,0 -0.7559,0.1004 -0.4532,-0.8597 -0.9286,-1.0401zm5.3476 14.7235c0.6451,0.0499 1.6669,-0.2796 2.1319,-0.7121 0.5918,-0.5507 1.0998,-0.8636 0.3553,-1.7799 -0.7879,-0.1959 -0.5059,0.6798 -1.0659,0.7119 -0.5111,-0.2718 -0.4315,-0.9254 -0.7107,-1.4239 -0.1056,-0.1884 -0.334,0.0478 -0.3554,-0.356 -0.0151,-0.291 -0.3982,-0.3526 -0.3552,-0.7119 -0.4549,0.1553 -0.7062,0.4557 -0.7107,1.0679 -0.006,0.8534 0.6485,1.3553 0,2.4919 0.3164,0.1577 0.6356,0.3126 0.7107,0.7121zm-27.1697 -16.2876c0.3175,0.0264 1.2435,0.0529 1.4023,0.4233 0.1588,0.3704 0.2911,0.8202 0.1588,0.9525 -0.0402,0.0402 -0.0608,0.1781 -0.0679,0.3557 -0.3432,-0.335 -0.9323,-0.4236 -1.4823,-0.5514 0.1686,-0.557 0.1139,-0.8904 -0.0567,-1.1075l0.0458 -0.0726zm1.5846 2.8766l0.0029 0.0073c0.0794,0.1852 -0.5555,1.0847 -0.5291,1.4552 0.0264,0.3705 0.1587,1.323 0.4233,1.6934 0.2646,0.3704 0.5292,2.2224 0.7144,2.7781 0.4709,1.4128 6.9195,9.3191 8.4932,12.8324 1.6316,3.6425 -0.2118,1.4288 0.8466,1.9844 1.0052,0.5276 4.062,1.2462 4.8204,1.2265 -0.1039,0.1928 -0.2219,0.3713 -0.3566,0.5332 -1.1746,0.411 -1.9983,-0.5006 -2.8424,-0.7119 -0.6902,-0.173 -1.6727,-0.2312 -2.4872,-0.7121 -0.4283,-0.2529 -0.3314,-1.0292 -1.0659,-1.0678 -0.3865,-0.0205 -0.7524,-0.8296 -1.4212,-1.068 0,-0.8306 0,-1.6614 0,-2.492 -1.2508,-0.9588 -1.5443,-2.5053 -2.4872,-3.9157 -0.2364,-0.3537 -0.8131,-0.6799 -1.066,-1.068 -0.0843,-0.1295 0.1145,-0.6182 0,-0.7119 -0.0416,-0.0341 -0.3343,0.0443 -0.3553,0 -0.0611,-0.1294 0.1037,-0.627 0,-0.7121 -0.293,-0.2401 -1.0315,-0.4138 -1.0659,-1.0678 -0.0131,-0.2496 -0.6988,-0.9853 -1.0659,-1.4241 -0.3264,-0.3901 -0.5218,-1.0219 -1.0659,-1.0679 0.1209,-1.7823 -1.3538,-1.9661 -1.0659,-3.9157 0.1679,-1.1178 -0.9564,-0.9405 -1.066,-1.7799 0.301,-1.0436 1.144,0.2127 1.7765,0 0.5251,-0.0311 0.6549,-0.4422 0.8632,-0.7956zm-1.7694 -34.0832l-0.0961 31.0842 -1.1817 -0.4404 0.4215 -31.3341 0.8563 0.6903zm47.5649 102.744l-0.0316 9.4763 -1.1245 0.5292 -0.0191 -0.0251 0.0206 -0.0001c0,-3.0851 -0.2645,-6.5673 -0.2645,-9.6525 0.1714,-0.6381 0.8548,-0.3474 1.4191,-0.3278zm-5.9009 11.8388l1.4217 50.7876c-3.1265,-1.2279 -2.1898,-0.7331 -3.6979,-1.3429 -0.4463,-15.2557 -0.0643,-33.0871 -1.054,-48.223 -0.66,-10.0952 -1.2445,-17.2297 -2.7224,-26.6833 -0.2093,-1.3367 -0.9946,-2.3986 0.4432,-3.2509 1.063,-0.0939 2.0946,0.9074 2.1592,2.0499 0.0381,0.6741 -0.1401,1.0899 0.0576,2.1029 0.9495,4.8602 0.7006,10.1219 0.9997,15.0584 0.8877,-0.192 0.8033,0.9714 1.289,2.1281 0.3602,2.6727 0.7961,4.6731 1.0414,7.3939l0.0625 -0.0207zm-6.2902 48.682l-1.4143 -0.1302 -2.9673 -75.4278c0.7402,-0.3839 1.8762,-0.4578 2.8401,-0.0155 0.0816,0.0075 0.4676,4.1513 0.4755,4.2624l1.066 71.3111zm22.578 -164.538c0,0 0.8607,14.6314 0.7746,15.32 -0.0848,0.6784 -0.5039,6.452 -3.808,9.2566 0.0115,0.1461 0.0186,0.3023 0.021,0.4691 0.0861,5.8526 -1.4632,13.6848 -2.4099,16.0086l-0.1269 -0.0106c-0.3101,-1.1933 -0.749,-2.2576 -1.753,-2.7559 0.8909,-0.8025 -0.4803,-3.0719 1.4213,-3.2037 0.1274,-0.5535 -0.1685,-1.2394 0,-1.7799 0.0354,-0.1139 0.7071,-0.6715 0.7105,-0.7119 0.0525,-0.6236 -0.7479,-1.0648 -0.3552,-2.136 -1.1854,-0.0011 -1.3851,0.0391 -2.6592,-0.0508 0.0093,-0.0804 2.9449,-2.7533 5.0663,-6.4494l0.0001 0.0005c1.1514,-2.006 2.0631,-4.3134 2.1367,-6.6718 0.7112,-2.3559 0.0583,-14.4914 -0.3523,-17.7016l1.334 0.4168zm7.097 224.215l18.2956 0.1082c-0.198,-0.6504 -0.8478,-4.3686 -1.0939,-5.2411 -3.1662,-2.2255 -9.5682,-3.8605 -13.7902,-4.8708l-12.0725 -36.9839c-1.2472,-1.2487 -6.2445,-4.3963 -8.9228,-5.1974l0.0014 0.0732 -0.5991 -0.2576 -0.165 -1.7799c-1.2353,-1.2207 -3.0818,-2.1423 -4.378,-2.7046 0.1331,0.8682 0.4405,2.5185 0.4537,4.2107 0.134,0.0418 1.3116,0.4326 1.602,0.5741 1.0143,5.9592 5.895,30.2303 7.9336,39.8725 1.6263,0.1932 11.0685,1.0321 13.0708,1.8965 0.2953,1.4912 1.871,10.0695 1.918,10.3025l-2.2536 -0.0024z"
   class="fil1"
   id="_289024024" />
   </g>
   <path
   d="M126.866 43.1499c-0.3828,0.743 -0.6107,2.0083 -0.5988,2.7372 0.0251,0.7918 0.0864,1.566 0.1466,2.3332 0.0601,0.7672 0.1203,1.5383 0.1411,2.3289 0.0549,1.4582 -0.31,3.0761 -0.7606,4.7024 -0.1537,0.469 -0.3153,0.9351 -0.4809,1.4016 -0.1675,0.0613 -0.3349,0.1208 -0.5015,0.1814 -0.4543,0.165 -0.757,-0.155 -0.6754,-0.7212 0.073,-0.4976 0.4145,-1.0151 0.8016,-1.2474 0.0601,-0.0281 0.1202,-0.0563 0.1814,-0.0869 -0.1585,-1.2069 -0.3163,-2.4183 -0.4744,-3.6294 -0.1651,-1.6537 -0.9746,-2.7152 -2.1513,-3.0205 -0.2046,-0.049 -0.2567,-0.1018 -0.4779,-0.1115 0.0901,4.5827 0.1806,9.1654 0.2707,13.7481 0.8443,-0.6441 1.7688,-1.3988 2.6714,-1.9615 0.3997,1.0375 0.9253,1.882 1.694,2.4665 0.1767,0.1139 0.3395,0.2248 0.5147,0.3188 0.2575,-0.322 0.4007,-0.5796 0.607,-0.8614 0.8574,-1.2794 1.3464,-2.9868 1.5364,-4.3873 0.9259,-0.5511 1.7233,-0.9887 2.5923,-1.3889 -0.0552,-4.6007 -0.1105,-9.2014 -0.1657,-13.8021 -0.2198,0.2718 -0.2438,0.4605 -0.442,0.7494 -1.1441,1.6835 -1.9053,3.6782 -2.0154,5.4949 -0.1181,1.375 -0.235,2.7494 -0.3516,4.1197 0.0599,-0.0413 0.1199,-0.0847 0.1807,-0.1285 0.3872,-0.2284 0.7386,-0.1231 0.8257,0.2792 0.0979,0.459 -0.189,1.1298 -0.6402,1.5035 -0.1662,0.1372 -0.3323,0.2763 -0.4977,0.4129 -0.1771,-0.2625 -0.3503,-0.5293 -0.5159,-0.8083 -0.4913,-1.0658 -0.9002,-2.2234 -0.892,-3.7191 -0.0043,-0.8004 0.0295,-1.6273 0.0643,-2.4509 0.0349,-0.8236 0.0709,-1.6556 0.0717,-2.4628 -0.0111,-0.7292 -0.2603,-1.711 -0.6583,-1.99zm-4.1822 6.2075c0.5574,0.4013 1.1709,1.1798 1.2954,2.1119 0.1308,0.9995 0.2623,2.0467 0.3938,3.0456 -0.421,0.494 -0.9235,1.1755 -1.0357,1.7809 -0.159,0.094 -0.316,0.1875 -0.473,0.2808 -0.0222,-1.1675 -0.0446,-2.337 -0.0668,-3.5082 -0.0223,-1.1712 -0.0913,-2.5321 -0.1137,-3.711zm8.423 -4.7929c0.015,1.1827 0.03,2.3618 0.0448,3.5368 0.0148,1.1751 0.0298,2.3484 0.0445,3.5198 -0.1579,0.0939 -0.3149,0.1872 -0.472,0.2806 -0.1289,-0.4617 -0.5064,-0.7113 -0.9349,-0.6998 0.0965,-1.1341 0.1942,-2.271 0.2921,-3.4059 0.0931,-1.0612 0.4922,-2.1827 1.0255,-3.2315zm-4.0841 8.9316c0.2341,0.7019 0.5562,1.3057 0.9471,1.8122 -0.3586,0.3442 -0.6732,0.7767 -0.8987,1.2405 -0.2378,-0.1925 -0.5602,-0.2421 -0.9239,-0.1561 0.3686,-0.9591 0.6657,-1.9311 0.8755,-2.8966zm-4.1403 4.0282c0.1569,-0.0933 0.3138,-0.1867 0.4727,-0.2807 0.162,0.5611 0.6178,0.813 1.191,0.6501 0.1334,-0.043 0.2668,-0.0878 0.4012,-0.1314 -0.0981,0.5012 -0.1152,0.7272 -0.1068,1.2032 -0.6231,0.371 -1.4067,0.9466 -1.9042,1.3407 -0.018,-0.942 -0.0359,-1.838 -0.0539,-2.7819zm7.8542 -4.672c0.1567,-0.0933 0.3137,-0.1866 0.4716,-0.2805 0.0119,0.945 0.0239,1.892 0.0358,2.8371 -0.4965,0.2209 -1.2463,0.5706 -1.8695,0.9414 -0.0068,-0.477 -0.0722,-0.7368 -0.1841,-1.1127 0.1322,-0.1151 0.2645,-0.2302 0.3978,-0.3459 0.5646,-0.5121 1.007,-1.2982 1.1484,-2.0394zm-4.9713 4.6416c0.5034,-0.219 0.8555,-0.238 0.865,0.3562 -0.346,0.2058 -0.646,0.3887 -0.9689,0.6061 -0.0069,-0.404 0.0164,-0.5347 0.1039,-0.9623zm2.6138 -1.5553c0.0993,0.3165 0.1233,0.4537 0.1293,0.8583 -0.3461,0.2059 -0.7957,0.4232 -1.1407,0.6291 -0.0092,-0.5943 0.5106,-1.109 1.0114,-1.4874zm-2.6773 3.4049c0.3138,-0.1982 0.6059,-0.4088 0.9206,-0.5501 0.0107,0.6606 0.0905,1.5957 0.1012,2.2525 -0.4667,-0.2704 -0.8566,-1.0398 -1.0218,-1.7024zm1.7382 -1.043c0.3128,-0.1868 0.7084,-0.4086 1.0347,-0.5612 -0.1411,0.8447 -0.4981,2.0104 -0.9464,2.8258 -0.0103,-0.6569 -0.0781,-1.6039 -0.0883,-2.2646z"
   class="fil1"
   id="tryzub3.cmx" />
  </g>
 </g>
</svg>